<?xml version="1.0" standalone="no"?>
<!DOCTYPE svg PUBLIC "-//W3C//DTD SVG 20010904//EN"
 "http://www.w3.org/TR/2001/REC-SVG-20010904/DTD/svg10.dtd">
<svg version="1.0" xmlns="http://www.w3.org/2000/svg"
 width="298.000000pt" height="298.000000pt" viewBox="0 0 298.000000 298.000000"
 preserveAspectRatio="xMidYMid meet">
<metadata>
Created by potrace 1.11, written by Peter Selinger 2001-2013
</metadata>
<g transform="translate(0.000000,298.000000) scale(0.100000,-0.100000)"
fill="#000000" stroke="none">
<path d="M1550 2970 c0 -5 6 -10 13 -10 7 0 31 -17 53 -37 23 -22 31 -33 19
-29 -82 31 -290 32 -390 2 -81 -24 -261 -93 -280 -108 -5 -5 -36 -25 -67 -45
-75 -50 -170 -143 -204 -201 -15 -26 -43 -63 -62 -84 -78 -84 -140 -181 -178
-278 -27 -71 -29 -83 -28 -220 0 -122 4 -157 23 -220 13 -41 25 -92 28 -113 5
-39 -10 -112 -34 -157 -26 -51 -16 -60 41 -36 31 13 33 13 29 -5 -3 -10 -29
-44 -59 -74 l-53 -56 26 -10 c14 -5 47 -10 73 -10 l47 -2 17 -56 c24 -77 70
-171 99 -202 22 -23 25 -35 30 -150 6 -128 21 -199 43 -199 7 0 17 16 23 35 9
34 41 77 41 56 0 -21 2 -26 12 -39 6 -7 13 -43 16 -81 4 -62 6 -68 24 -63 10
2 38 24 62 47 l43 43 29 -56 c16 -32 31 -59 34 -62 3 -3 18 -25 34 -49 15 -24
42 -57 59 -74 29 -28 29 -30 11 -41 -23 -13 -229 -72 -287 -81 -52 -9 -117
-41 -117 -58 0 -7 26 -25 58 -39 31 -15 96 -45 143 -67 102 -48 303 -105 444
-127 145 -23 493 -14 625 15 129 28 296 84 395 132 45 21 87 39 94 39 6 0 11
4 11 9 0 5 14 14 30 21 17 7 30 14 30 17 0 16 -39 36 -97 49 -37 8 -106 26
-153 39 -47 13 -111 31 -142 40 -55 15 -73 35 -48 50 9 5 44 77 63 125 3 9 6
6 6 -10 1 -23 3 -22 28 15 32 47 68 150 78 225 4 30 12 66 17 80 l10 25 14
-34 c8 -18 14 -42 14 -52 0 -47 45 -1 66 68 16 54 20 113 10 161 -7 28 -5 32
21 38 55 12 63 16 63 29 0 8 -10 17 -22 20 -37 10 -61 51 -54 91 4 19 10 34
14 34 9 0 37 73 52 135 6 27 11 98 11 157 -1 103 0 108 20 108 11 0 28 7 37
16 14 15 14 18 -9 35 -13 10 -28 19 -34 19 -5 0 -20 11 -33 24 -20 22 -23 36
-26 138 -2 62 -11 149 -21 193 -18 90 -63 245 -75 260 -4 6 -11 21 -15 34 -8
25 -74 142 -85 151 -3 3 -23 32 -42 65 -41 68 -98 135 -115 135 -6 0 -13 6
-16 14 -6 14 -122 60 -181 72 -21 3 -40 14 -43 23 -3 9 -31 41 -62 71 -40 40
-71 60 -110 73 -58 19 -141 23 -141 7z"/>
</g>
</svg>
